<svg width="600" height="120" viewBox="0 0 600 120" fill="none" xmlns="http://www.w3.org/2000/svg">
<path d="M2.15217 63.8861C0.931906 63.7699 5.81366e-07 62.745 4.74205e-07 61.5193L0 56.095C-1.07162e-07 54.8692 0.960243 53.8417 2.18056 53.726C39.1895 50.2169 39.1014 50.2773 42.6844 12.4917C42.8001 11.2714 43.8277 10.3104 45.0535 10.3104L52.4274 10.3104C53.6532 10.3104 54.6781 11.2423 54.7943 12.4625L56.7615 33.1189C57.5923 41.8424 51.5237 49.5082 43.2135 50.9931C41.9569 51.2177 40.942 52.2482 40.942 53.5247V64.9656C40.942 66.3678 39.7348 67.4654 38.339 67.3325L2.15217 63.8861Z" fill="#0066FF"/>
<path d="M40.7195 84.9827C39.8887 76.2593 45.9573 68.5937 54.2674 67.1087C55.524 66.8842 56.5389 65.8537 56.5389 64.5772V52.6486C56.5389 51.2465 57.7461 50.1488 59.1419 50.2817L95.3288 53.7281C96.549 53.8443 97.4809 54.8692 97.4809 56.095V61.5193C97.4809 62.745 96.5234 63.7721 95.3033 63.8895C59.7412 67.3128 58.3458 68.7271 54.7978 105.612C54.6804 106.832 53.6532 107.791 52.4274 107.791H45.0535C43.8277 107.791 42.8029 106.859 42.6866 105.639L40.7195 84.9827Z" fill="#0066FF"/>
<path d="M25.0849 74.1424C25.9658 73.0223 27.6275 72.9233 28.6351 73.931L33.8919 79.1873C34.8994 80.195 34.8005 81.8567 33.6805 82.7375L18.6226 94.5794C17.6762 95.3235 16.3232 95.2426 15.4719 94.3913L13.4312 92.3505C12.58 91.4992 12.4994 90.1462 13.2435 89.1999L25.0849 74.1424Z" fill="#0066FF"/>
<path d="M69.1974 73.9227C70.205 72.9151 71.8667 73.0141 72.7476 74.1342L84.5894 89.1916C85.3336 90.138 85.253 91.4914 84.4018 92.3427L82.361 94.383C81.5097 95.2343 80.1567 95.3149 79.2104 94.5707L64.1524 82.7293C63.0324 81.8484 62.9335 80.1867 63.941 79.1791L69.1974 73.9227Z" fill="#0066FF"/>
<path d="M15.4637 23.4216C16.315 22.5704 17.668 22.4898 18.6143 23.2339L33.6723 35.0758C34.792 35.9567 34.8911 37.618 33.8837 38.6255L28.6269 43.8824C27.6193 44.8896 25.958 44.7906 25.0771 43.6709L13.2353 28.613C12.4911 27.6666 12.5716 26.3132 13.4229 25.4619L15.4637 23.4216Z" fill="#0066FF"/>
<path d="M79.2017 23.2253C80.148 22.4812 81.501 22.5618 82.3523 23.4129L84.3931 25.4537C85.2442 26.3049 85.3247 27.658 84.5807 28.6043L72.7389 43.6622C71.858 44.7823 70.1963 44.8813 69.1887 43.8737L63.9323 38.6173C62.9247 37.6097 63.0237 35.948 64.1437 35.0671L79.2017 23.2253Z" fill="#0066FF"/>
<path d="M190.803 16.7696C190.803 17.6116 190.121 18.2941 189.279 18.2941H143.544C142.702 18.2941 142.019 18.9767 142.019 19.8186V50.3085C142.019 51.1504 142.702 51.833 143.544 51.833H169.46C170.302 51.833 170.985 52.5155 170.985 53.3575V64.0291C170.985 64.871 170.302 65.5536 169.46 65.5536H143.544C142.702 65.5536 142.019 66.2361 142.019 67.0781V116.243C142.019 117.085 141.337 117.768 140.495 117.768H125.25C124.408 117.768 123.725 117.085 123.725 116.243V82.3232C123.725 73.7056 129.684 66.4809 137.706 64.542C138.43 64.3671 138.97 63.7381 138.97 62.9935V54.393C138.97 53.6484 138.43 53.0195 137.706 52.8445C129.684 50.9057 123.725 43.6813 123.725 35.0638V1.5245C123.725 0.682543 124.408 0 125.25 0H189.279C190.121 0 190.803 0.682542 190.803 1.5245V16.7696Z" fill="#0066FF"/>
<path d="M321.674 35.0636C322.516 35.0636 323.198 35.7461 323.198 36.5881V47.2597C323.198 48.1016 322.516 48.7842 321.674 48.7842H297.328C296.486 48.7842 295.803 49.4667 295.803 50.3087V115.862C295.803 116.704 295.121 117.387 294.279 117.387H279.034C278.192 117.387 277.509 116.704 277.509 115.862V50.4885C277.509 41.9696 284.415 35.0636 292.934 35.0636H321.674Z" fill="#0066FF"/>
<path d="M370.724 33.5392C370.724 34.3811 371.407 35.0637 372.249 35.0637H393.707C394.549 35.0637 395.231 35.7462 395.231 36.5882V47.2598C395.231 48.1017 394.549 48.7843 393.707 48.7843H372.249C371.407 48.7843 370.724 49.4668 370.724 50.3088L370.725 102.518C370.725 103.359 371.407 104.042 372.249 104.042H393.707C394.549 104.042 395.231 104.725 395.231 105.567V116.109C395.231 116.951 394.549 117.633 393.707 117.633H369.933C369.928 117.633 369.924 117.629 369.924 117.624C369.924 117.618 369.92 117.614 369.914 117.614C360.196 117.19 352.446 109.178 352.446 99.3554V50.3088C352.446 49.4668 351.764 48.7843 350.922 48.7843H332.727C331.885 48.7843 331.202 48.1017 331.202 47.2598V36.5882C331.202 35.7462 331.885 35.0637 332.727 35.0637H350.922C351.764 35.0637 352.446 34.3811 352.446 33.5392V4.805C352.446 3.96304 353.129 3.28049 353.971 3.28049H369.2C370.042 3.28049 370.724 3.96304 370.724 4.80499V33.5392Z" fill="#0066FF"/>
<path d="M426.68 35.0633C429.965 35.0635 432.627 37.726 432.627 41.0103V116.281C432.627 117.102 431.962 117.767 431.14 117.767H415.82C414.999 117.767 414.333 117.102 414.333 116.281V50.2709C414.333 49.4498 413.667 48.7839 412.846 48.7839H404.721C403.9 48.7839 403.235 48.1184 403.235 47.2974V36.5503C403.235 35.7292 403.9 35.0634 404.721 35.0633H426.68Z" fill="#0066FF"/>
<path d="M418.385 2.85863C424.647 2.85874 429.723 7.93505 429.723 14.197C429.723 20.459 424.647 25.5354 418.385 25.5355C412.123 25.5355 407.046 20.4591 407.046 14.197C407.046 7.93498 412.123 2.85863 418.385 2.85863Z" fill="#0066FF"/>
<path d="M224.919 119.976C217.634 119.976 211.221 118.796 205.68 116.436C200.14 113.974 195.471 110.742 191.675 106.74C187.879 102.636 185.006 98.0699 183.056 93.0423C181.107 88.0147 180.132 82.7819 180.132 77.3439V74.4196C180.132 68.9816 181.107 63.6975 183.056 58.5673C185.108 53.437 188.084 48.8712 191.983 44.8696C195.882 40.7654 200.55 37.5334 205.988 35.1735C211.529 32.8136 217.839 31.6336 224.919 31.6336C231.896 31.6336 238.155 32.8136 243.695 35.1735C249.236 37.5334 253.904 40.7654 257.701 44.8696C261.6 48.8712 264.524 53.437 266.473 58.5673C268.526 63.6975 269.552 68.9816 269.552 74.4196V77.3439C269.552 82.7819 268.577 88.0147 266.627 93.0423C264.678 98.0699 261.805 102.636 258.009 106.74C254.212 110.742 249.544 113.974 244.003 116.436C238.462 118.796 232.101 119.976 224.919 119.976ZM224.919 104.739C230.665 104.739 235.538 103.508 239.54 101.045C243.644 98.4803 246.773 95.0431 248.928 90.7337C251.083 86.3217 252.16 81.3967 252.16 75.9587C252.16 70.3155 251.031 65.3392 248.774 61.0298C246.619 56.6178 243.49 53.1805 239.386 50.718C235.384 48.1529 230.562 46.8704 224.919 46.8704C219.275 46.8704 214.402 48.1529 210.298 50.718C206.193 53.1805 203.064 56.6178 200.909 61.0298C198.755 65.3392 197.677 70.3155 197.677 75.9587C197.677 81.3967 198.703 86.3217 200.755 90.7337C202.91 95.0431 205.988 98.4803 209.99 101.045C214.094 103.508 219.07 104.739 224.919 104.739Z" fill="#0066FF"/>
<path d="M482.494 119.977C475.414 119.977 469.258 118.797 464.025 116.437C458.792 113.974 454.431 110.691 450.942 106.587C447.557 102.38 444.991 97.7625 443.247 92.7349C441.503 87.6047 440.631 82.4744 440.631 77.3442V74.4199C440.631 69.0845 441.503 63.9029 443.247 58.8753C444.991 53.745 447.608 49.1791 451.096 45.1775C454.585 41.0733 458.894 37.7899 464.025 35.3274C469.258 32.8649 475.362 31.6336 482.34 31.6336C489.419 31.6336 495.73 32.9675 501.27 35.6352C506.811 38.303 511.274 42.048 514.66 46.8705C517.76 51.2859 519.613 56.3896 520.219 62.1813C520.311 63.0565 519.61 63.8003 518.73 63.8003H504.921C504.154 63.8003 503.512 63.2284 503.367 62.475C502.549 58.2401 500.465 54.6802 497.115 51.7955C493.524 48.6148 488.599 47.0244 482.34 47.0244C476.902 47.0244 472.387 48.2556 468.796 50.7182C465.205 53.1807 462.537 56.6179 460.793 61.03C459.048 65.3394 458.176 70.3157 458.176 75.959C458.176 81.2945 459.048 86.1682 460.793 90.5802C462.537 94.8896 465.205 98.3269 468.796 100.892C472.387 103.457 476.953 104.74 482.494 104.74C486.803 104.74 490.497 103.97 493.575 102.431C496.653 100.892 499.116 98.8399 500.962 96.2748C502.651 94.0523 503.763 91.5218 504.297 88.6832C504.439 87.9255 505.082 87.3481 505.853 87.3481H519.682C520.551 87.3481 521.248 88.0753 521.173 88.9416C520.655 94.945 518.791 100.211 515.584 104.74C512.095 109.562 507.478 113.307 501.732 115.975C496.089 118.643 489.676 119.977 482.494 119.977Z" fill="#0066FF"/>
<path d="M564.304 119.977C553.032 119.977 544.264 117.652 538.002 113.002C532.139 108.552 528.883 102.518 528.235 94.8984C528.162 94.0372 528.857 93.3187 529.721 93.3187H543.043C543.825 93.3187 544.469 93.9152 544.648 94.6771C545.256 97.2676 546.851 99.7079 549.431 101.998C552.458 104.581 557.416 105.873 564.304 105.873C570.463 105.873 575.212 104.736 578.552 102.463C581.892 100.086 583.562 97.1417 583.562 93.6287C583.562 90.4256 582.309 87.9458 579.804 86.1893C577.299 84.3294 573.176 83.0895 567.436 82.4696L558.981 81.6946C550.423 80.7647 543.586 78.2849 538.472 74.2552C533.462 70.1222 530.957 64.5427 530.957 57.5166C530.957 52.0403 532.366 47.3907 535.184 43.5677C538.002 39.7446 541.864 36.7999 546.769 34.7334C551.675 32.6669 557.364 31.6336 563.835 31.6336C573.646 31.6336 581.579 33.8035 587.632 38.1431C593.402 42.2088 596.56 48.0428 597.107 55.6454C597.169 56.5 596.476 57.2066 595.62 57.2066H582.374C581.552 57.2066 580.893 56.5503 580.74 55.7426C580.271 53.2688 578.811 51.122 576.36 49.3022C573.542 47.0291 569.367 45.8925 563.835 45.8925C558.512 45.8925 554.389 46.9774 551.466 49.1472C548.648 51.2137 547.239 53.9002 547.239 57.2066C547.239 60.0997 548.283 62.4245 550.37 64.181C552.562 65.8342 556.007 66.9191 560.704 67.4358L569.158 68.2107C578.552 69.2439 586.014 71.8271 591.546 75.9601C597.183 80.0931 600.001 85.8793 600.001 93.3187C600.001 98.5883 598.487 103.238 595.46 107.268C592.433 111.297 588.206 114.449 582.779 116.722C577.456 118.892 571.298 119.977 564.304 119.977Z" fill="#0066FF"/>
</svg>
