<svg width="477" height="244" viewBox="0 0 477 244" fill="none" xmlns="http://www.w3.org/2000/svg">
<path d="M67.16 140.667C67.16 141.51 66.4767 142.193 65.6337 142.193H19.8429C18.9999 142.193 18.3165 142.877 18.3165 143.72V174.247C18.3165 175.09 18.9999 175.773 19.8429 175.773H45.7912C46.6342 175.773 47.3176 176.456 47.3176 177.299V187.984C47.3176 188.827 46.6342 189.51 45.7912 189.51H19.8429C18.9999 189.51 18.3165 190.194 18.3165 191.037V240.262C18.3165 241.105 17.6331 241.788 16.7901 241.788H1.52636C0.683377 241.788 0 241.105 0 240.262V206.301C0 197.672 5.96619 190.439 13.9979 188.498C14.7225 188.323 15.2637 187.693 15.2637 186.947V178.336C15.2637 177.591 14.7225 176.961 13.9979 176.786C5.96621 174.845 6.33318e-05 167.612 0 158.983V125.403C0 124.56 0.683376 123.877 1.52636 123.877H65.6337C66.4767 123.877 67.16 124.56 67.16 125.403V140.667Z" fill="#0066FF"/>
<path d="M198.191 158.983C199.034 158.983 199.717 159.667 199.717 160.51V171.194C199.717 172.037 199.034 172.721 198.191 172.721H173.815C172.972 172.721 172.289 173.404 172.289 174.247V239.881C172.289 240.724 171.605 241.407 170.762 241.407H155.498C154.655 241.407 153.972 240.724 153.972 239.881V174.427C153.972 165.898 160.887 158.983 169.416 158.983H198.191Z" fill="#0066FF"/>
<path d="M247.301 157.457C247.301 158.3 247.984 158.983 248.827 158.983H270.311C271.154 158.983 271.838 159.667 271.838 160.51V171.194C271.838 172.037 271.154 172.721 270.311 172.721H248.827C247.984 172.721 247.301 173.404 247.301 174.247L247.301 226.52C247.301 227.363 247.985 228.046 248.828 228.046H270.311C271.154 228.046 271.838 228.729 271.838 229.572V240.127C271.838 240.97 271.154 241.654 270.311 241.654H246.509C246.504 241.654 246.499 241.649 246.499 241.644C246.499 241.639 246.495 241.635 246.49 241.634C236.76 241.21 229.001 233.189 229.001 223.354V174.247C229.001 173.404 228.317 172.721 227.474 172.721H209.257C208.414 172.721 207.73 172.037 207.73 171.194V160.51C207.73 159.667 208.414 158.983 209.257 158.983H227.474C228.317 158.983 229.001 158.3 229.001 157.457V128.688C229.001 127.845 229.684 127.161 230.527 127.161H245.774C246.617 127.161 247.301 127.845 247.301 128.688V157.457Z" fill="#0066FF"/>
<path d="M303.325 158.983C306.614 158.983 309.28 161.649 309.28 164.937V240.3C309.28 241.122 308.613 241.788 307.791 241.788H292.452C291.63 241.788 290.963 241.122 290.963 240.3V174.209C290.963 173.387 290.297 172.72 289.474 172.72H281.339C280.517 172.72 279.851 172.054 279.851 171.232V160.472C279.851 159.65 280.517 158.983 281.339 158.983H303.325Z" fill="#0066FF"/>
<path d="M295.02 126.739C301.289 126.739 306.372 131.822 306.372 138.091C306.372 144.361 301.289 149.443 295.02 149.443C288.75 149.443 283.667 144.361 283.667 138.091C283.667 131.822 288.75 126.739 295.02 126.739Z" fill="#0066FF"/>
<path d="M101.317 243.999C94.0234 243.999 87.6028 242.818 82.0554 240.455C76.508 237.99 71.8338 234.754 68.0328 230.747C64.2318 226.638 61.3554 222.067 59.4035 217.033C57.4516 211.999 56.4757 206.76 56.4757 201.315V198.387C56.4757 192.943 57.4516 187.652 59.4035 182.516C61.4581 177.379 64.4373 172.808 68.341 168.801C72.2447 164.692 76.9189 161.456 82.3636 159.093C87.911 156.73 94.2289 155.549 101.317 155.549C108.303 155.549 114.569 156.73 120.117 159.093C125.664 161.456 130.338 164.692 134.139 168.801C138.043 172.808 140.971 177.379 142.923 182.516C144.977 187.652 146.005 192.943 146.005 198.387V201.315C146.005 206.76 145.029 211.999 143.077 217.033C141.125 222.067 138.249 226.638 134.448 230.747C130.647 234.754 125.972 237.99 120.425 240.455C114.878 242.818 108.508 243.999 101.317 243.999ZM101.317 228.744C107.07 228.744 111.95 227.511 115.956 225.046C120.065 222.477 123.199 219.036 125.356 214.721C127.513 210.304 128.592 205.373 128.592 199.928C128.592 194.278 127.462 189.296 125.202 184.981C123.045 180.564 119.911 177.122 115.802 174.657C111.796 172.089 106.967 170.804 101.317 170.804C95.6671 170.804 90.7874 172.089 86.6782 174.657C82.569 177.122 79.4358 180.564 77.2785 184.981C75.1211 189.296 74.0425 194.278 74.0425 199.928C74.0425 205.373 75.0698 210.304 77.1244 214.721C79.2817 219.036 82.3636 222.477 86.37 225.046C90.4792 227.511 95.4616 228.744 101.317 228.744Z" fill="#0066FF"/>
<path d="M359.207 244C352.118 244 345.955 242.819 340.715 240.456C335.476 237.99 331.11 234.703 327.617 230.594C324.227 226.382 321.659 221.759 319.912 216.725C318.166 211.588 317.293 206.452 317.293 201.315V198.388C317.293 193.046 318.166 187.858 319.912 182.824C321.659 177.687 324.278 173.116 327.771 169.11C331.264 165 335.579 161.713 340.715 159.247C345.955 156.782 352.067 155.549 359.053 155.549C366.141 155.549 372.459 156.885 378.006 159.556C383.554 162.227 388.023 165.976 391.413 170.805C394.517 175.225 396.372 180.335 396.978 186.134C397.07 187.01 396.369 187.755 395.488 187.755H381.662C380.893 187.755 380.251 187.183 380.106 186.428C379.286 182.188 377.2 178.624 373.846 175.736C370.25 172.551 365.319 170.959 359.053 170.959C353.608 170.959 349.088 172.191 345.492 174.657C341.897 177.122 339.226 180.564 337.479 184.981C335.733 189.296 334.86 194.278 334.86 199.929C334.86 205.271 335.733 210.15 337.479 214.568C339.226 218.882 341.897 222.324 345.492 224.892C349.088 227.46 353.659 228.744 359.207 228.744C363.521 228.744 367.22 227.974 370.302 226.433C373.383 224.892 375.849 222.837 377.698 220.269C379.389 218.044 380.502 215.51 381.036 212.668C381.179 211.91 381.823 211.332 382.595 211.332H396.44C397.311 211.332 398.008 212.06 397.933 212.927C397.414 218.938 395.549 224.21 392.337 228.744C388.844 233.573 384.222 237.322 378.469 239.993C372.818 242.664 366.398 244 359.207 244Z" fill="#0066FF"/>
<path d="M441.118 244C429.831 244 421.053 241.672 414.783 237.017C408.913 232.562 405.653 226.52 405.004 218.891C404.93 218.029 405.627 217.309 406.492 217.309H419.83C420.614 217.309 421.258 217.907 421.437 218.67C422.046 221.263 423.643 223.706 426.226 225.999C429.257 228.586 434.22 229.879 441.118 229.879C447.283 229.879 452.038 228.741 455.382 226.465C458.726 224.086 460.398 221.137 460.398 217.62C460.398 214.413 459.144 211.93 456.636 210.171C454.128 208.309 450 207.068 444.253 206.447L435.788 205.671C427.219 204.74 420.374 202.257 415.253 198.223C410.237 194.085 407.729 188.498 407.729 181.464C407.729 175.981 409.14 171.325 411.961 167.498C414.783 163.67 418.65 160.722 423.561 158.653C428.473 156.584 434.168 155.549 440.647 155.549C450.471 155.549 458.413 157.722 464.474 162.067C470.25 166.137 473.412 171.978 473.961 179.59C474.022 180.446 473.329 181.153 472.471 181.153H459.209C458.386 181.153 457.726 180.496 457.573 179.688C457.103 177.211 455.642 175.061 453.188 173.239C450.366 170.963 446.186 169.825 440.647 169.825C435.318 169.825 431.19 170.912 428.264 173.084C425.442 175.153 424.031 177.843 424.031 181.153C424.031 184.05 425.076 186.378 427.167 188.136C429.361 189.791 432.81 190.878 437.512 191.395L445.977 192.171C455.382 193.205 462.854 195.792 468.393 199.93C474.036 204.068 476.857 209.861 476.857 217.309C476.857 222.586 475.342 227.241 472.312 231.275C469.281 235.31 465.049 238.465 459.615 240.741C454.285 242.914 448.119 244 441.118 244Z" fill="#0066FF"/>
<path d="M191.724 53.6412C190.502 53.5249 189.569 52.4987 189.569 51.2714L189.569 45.8406C189.569 44.6133 190.531 43.5845 191.753 43.4687C228.807 39.9552 228.718 40.0158 232.306 2.18402C232.422 0.962223 233.451 7.52725e-07 234.678 6.45433e-07L242.061 0C243.288 -1.07292e-07 244.314 0.93305 244.431 2.15481L246.4 22.8364C247.232 31.5705 241.156 39.2457 232.836 40.7325C231.577 40.9573 230.561 41.989 230.561 43.2671V54.722C230.561 56.1259 229.353 57.2249 227.955 57.0918L191.724 53.6412Z" fill="#0066FF"/>
<path d="M230.339 74.7636C229.507 66.0294 235.583 58.3545 243.903 56.8677C245.161 56.6429 246.177 55.6112 246.177 54.3331V42.39C246.177 40.9861 247.386 39.8871 248.784 40.0202L285.015 43.4708C286.236 43.5871 287.169 44.6133 287.169 45.8405V51.2715C287.169 52.4987 286.211 53.527 284.989 53.6446C249.384 57.0721 247.986 58.4881 244.434 95.4182C244.317 96.6399 243.288 97.6 242.061 97.6H234.678C233.451 97.6 232.424 96.6669 232.308 95.4452L230.339 74.7636Z" fill="#0066FF"/>
<path d="M214.686 63.9101C215.568 62.7886 217.232 62.6895 218.24 63.6984L223.504 68.9612C224.512 69.97 224.413 71.6337 223.292 72.5157L208.216 84.372C207.268 85.117 205.914 85.036 205.061 84.1837L203.018 82.1404C202.166 81.2881 202.085 79.9334 202.83 78.9859L214.686 63.9101Z" fill="#0B1121"/>
<path d="M258.852 63.6901C259.861 62.6813 261.525 62.7804 262.407 63.9018L274.263 78.9777C275.008 79.9252 274.928 81.2803 274.075 82.1326L272.032 84.1754C271.18 85.0277 269.825 85.1084 268.878 84.3633L253.801 72.5074C252.68 71.6255 252.581 69.9618 253.589 68.9529L258.852 63.6901Z" fill="#0B1121"/>
<path d="M205.053 13.1273C205.905 12.275 207.26 12.1943 208.207 12.9394L223.284 24.7957C224.405 25.6777 224.504 27.341 223.495 28.3498L218.232 33.6131C217.223 34.6216 215.56 34.5224 214.678 33.4014L202.822 18.325C202.077 17.3775 202.157 16.0224 203.01 15.1701L205.053 13.1273Z" fill="#0B1121"/>
<path d="M268.869 12.9307C269.816 12.1858 271.171 12.2664 272.023 13.1186L274.067 15.1618C274.919 16.0141 274.999 17.3689 274.254 18.3163L262.398 33.3926C261.516 34.5141 259.852 34.6132 258.844 33.6044L253.581 28.3415C252.572 27.3327 252.671 25.669 253.792 24.787L268.869 12.9307Z" fill="#0B1121"/>
</svg>
