<svg width="600" height="120" viewBox="0 0 600 120" fill="none" xmlns="http://www.w3.org/2000/svg">
<path d="M2.15216 63.886C0.931902 63.7698 5.81363e-07 62.7449 4.74203e-07 61.5191L0 56.0949C-1.07161e-07 54.8691 0.960239 53.8416 2.18055 53.7259C39.1893 50.2168 39.1012 50.2772 42.6842 12.4918C42.7999 11.2715 43.8275 10.3104 45.0533 10.3104L52.4272 10.3104C53.653 10.3104 54.6778 11.2423 54.794 12.4626L56.7612 33.1189C57.592 41.8423 51.5234 49.5081 43.2134 50.993C41.9567 51.2176 40.9418 52.248 40.9418 53.5246V64.9655C40.9418 66.3676 39.7347 67.4653 38.3388 67.3323L2.15216 63.886Z" fill="#0066FF"/>
<path d="M40.7193 84.9825C39.8885 76.259 45.9571 68.5935 54.2671 67.1086C55.5238 66.884 56.5387 65.8536 56.5387 64.577V52.6485C56.5387 51.2463 57.7458 50.1487 59.1417 50.2816L95.3283 53.728C96.5486 53.8442 97.4805 54.8691 97.4805 56.0948V61.5191C97.4805 62.7449 96.523 63.7719 95.3029 63.8894C59.741 67.3126 58.3456 68.7269 54.7975 105.612C54.6802 106.832 53.653 107.791 52.4272 107.791H45.0533C43.8275 107.791 42.8027 106.859 42.6865 105.639L40.7193 84.9825Z" fill="#0066FF"/>
<path d="M25.0849 74.1423C25.9658 73.0222 27.6274 72.9233 28.635 73.9309L33.8919 79.1872C34.8993 80.1949 34.8004 81.8565 33.6804 82.7374L18.6225 94.5792C17.6762 95.3233 16.3232 95.2424 15.4719 94.3911L13.4312 92.3503C12.58 91.499 12.4994 90.146 13.2435 89.1997L25.0849 74.1423Z" fill="#0B1121"/>
<path d="M69.1971 73.9226C70.2047 72.915 71.8664 73.014 72.7473 74.1341L84.5891 89.1915C85.3333 90.1378 85.2527 91.4913 84.4015 92.3426L82.3607 94.3829C81.5094 95.2341 80.1564 95.3147 79.2101 94.5705L64.1522 82.7292C63.0322 81.8483 62.9333 80.1866 63.9408 79.179L69.1971 73.9226Z" fill="#0B1121"/>
<path d="M15.4637 23.4217C16.315 22.5705 17.668 22.4899 18.6143 23.2341L33.6722 35.0759C34.7919 35.9568 34.891 37.618 33.8836 38.6256L28.6268 43.8824C27.6193 44.8897 25.958 44.7907 25.0771 43.671L13.2353 28.6131C12.4911 27.6667 12.5716 26.3133 13.4229 25.462L15.4637 23.4217Z" fill="#0B1121"/>
<path d="M79.2014 23.2254C80.1477 22.4813 81.5008 22.5619 82.352 23.413L84.3928 25.4538C85.2439 26.305 85.3244 27.6581 84.5804 28.6044L72.7386 43.6623C71.8577 44.7823 70.1961 44.8813 69.1884 43.8737L63.9321 38.6173C62.9245 37.6097 63.0235 35.9481 64.1435 35.0672L79.2014 23.2254Z" fill="#0B1121"/>
<path d="M190.804 16.7696C190.804 17.6115 190.122 18.2941 189.28 18.2941H143.545C142.703 18.2941 142.021 18.9766 142.021 19.8186V50.3083C142.021 51.1502 142.703 51.8327 143.545 51.8327H169.462C170.304 51.8327 170.986 52.5153 170.986 53.3572V64.0288C170.986 64.8708 170.304 65.5533 169.462 65.5533H143.545C142.703 65.5533 142.021 66.2358 142.021 67.0778V116.243C142.021 117.085 141.338 117.767 140.496 117.767H125.251C124.409 117.767 123.727 117.085 123.727 116.243V82.3229C123.727 73.7053 129.685 66.4806 137.707 64.5418C138.431 64.3668 138.972 63.7379 138.972 62.9932V54.3928C138.972 53.6482 138.431 53.0192 137.707 52.8443C129.685 50.9055 123.727 43.6812 123.727 35.0636V1.5245C123.727 0.68254 124.409 0 125.251 0H189.28C190.122 0 190.804 0.682539 190.804 1.52449V16.7696Z" fill="#0066FF"/>
<path d="M321.675 35.0634C322.517 35.0634 323.199 35.7459 323.199 36.5879V47.2595C323.199 48.1014 322.517 48.784 321.675 48.784H297.329C296.487 48.784 295.804 49.4665 295.804 50.3085V115.862C295.804 116.704 295.122 117.386 294.28 117.386H279.035C278.193 117.386 277.51 116.704 277.51 115.862V50.4883C277.51 41.9694 284.416 35.0634 292.935 35.0634H321.675Z" fill="#0066FF"/>
<path d="M370.725 33.539C370.725 34.381 371.407 35.0635 372.249 35.0635H393.707C394.549 35.0635 395.232 35.7461 395.232 36.588V47.2596C395.232 48.1015 394.549 48.7841 393.707 48.7841H372.249C371.407 48.7841 370.725 49.4666 370.725 50.3086L370.725 102.517C370.725 103.359 371.408 104.042 372.249 104.042H393.707C394.549 104.042 395.232 104.724 395.232 105.566V116.108C395.232 116.95 394.549 117.633 393.707 117.633H369.934C369.928 117.633 369.924 117.628 369.924 117.623C369.924 117.618 369.92 117.614 369.915 117.613C360.196 117.19 352.447 109.178 352.447 99.355V50.3086C352.447 49.4666 351.764 48.7841 350.922 48.7841H332.727C331.885 48.7841 331.203 48.1015 331.203 47.2596V36.588C331.203 35.7461 331.885 35.0635 332.727 35.0635H350.922C351.764 35.0635 352.447 34.381 352.447 33.539V4.80498C352.447 3.96302 353.129 3.28048 353.971 3.28048H369.2C370.042 3.28048 370.725 3.96302 370.725 4.80497V33.539Z" fill="#0066FF"/>
<path d="M426.681 35.0632C429.965 35.0633 432.628 37.7259 432.628 41.0102V116.28C432.628 117.101 431.962 117.767 431.141 117.767H415.82C414.999 117.767 414.334 117.101 414.334 116.28V50.2707C414.334 49.4496 413.668 48.7837 412.847 48.7837H404.722C403.901 48.7837 403.235 48.1182 403.235 47.2972V36.5502C403.235 35.7291 403.901 35.0632 404.722 35.0632H426.681Z" fill="#0066FF"/>
<path d="M418.385 2.85862C424.647 2.85873 429.723 7.93502 429.723 14.197C429.723 20.4589 424.647 25.5353 418.385 25.5354C412.123 25.5354 407.046 20.459 407.046 14.197C407.046 7.93495 412.123 2.85862 418.385 2.85862Z" fill="#0066FF"/>
<path d="M224.92 119.975C217.635 119.975 211.222 118.796 205.682 116.436C200.141 113.973 195.472 110.741 191.676 106.74C187.88 102.635 185.007 98.0695 183.057 93.0419C181.108 88.0143 180.133 82.7815 180.133 77.3435V74.4193C180.133 68.9813 181.108 63.6972 183.057 58.567C185.109 53.4368 188.085 48.871 191.984 44.8694C195.883 40.7652 200.551 37.5332 205.989 35.1733C211.53 32.8134 217.84 31.6335 224.92 31.6335C231.897 31.6335 238.156 32.8134 243.696 35.1733C249.237 37.5332 253.905 40.7652 257.702 44.8694C261.601 48.871 264.525 53.4368 266.474 58.567C268.526 63.6972 269.552 68.9813 269.552 74.4193V77.3435C269.552 82.7815 268.578 88.0143 266.628 93.0419C264.679 98.0695 261.806 102.635 258.009 106.74C254.213 110.741 249.545 113.973 244.004 116.436C238.463 118.796 232.102 119.975 224.92 119.975ZM224.92 104.739C230.666 104.739 235.539 103.508 239.541 101.045C243.645 98.4799 246.774 95.0427 248.929 90.7334C251.084 86.3214 252.161 81.3964 252.161 75.9584C252.161 70.3152 251.032 65.3389 248.775 61.0295C246.62 56.6175 243.491 53.1803 239.387 50.7178C235.385 48.1527 230.563 46.8702 224.92 46.8702C219.277 46.8702 214.403 48.1527 210.299 50.7178C206.195 53.1803 203.065 56.6175 200.91 61.0295C198.756 65.3389 197.678 70.3152 197.678 75.9584C197.678 81.3964 198.704 86.3214 200.757 90.7334C202.911 95.0427 205.989 98.4799 209.991 101.045C214.095 103.508 219.071 104.739 224.92 104.739Z" fill="#0066FF"/>
<path d="M482.494 119.976C475.414 119.976 469.258 118.796 464.025 116.436C458.792 113.974 454.431 110.69 450.943 106.586C447.557 102.379 444.992 97.7621 443.247 92.7345C441.503 87.6043 440.631 82.4741 440.631 77.3438V74.4196C440.631 69.0842 441.503 63.9026 443.247 58.875C444.992 53.7448 447.608 49.1789 451.097 45.1773C454.585 41.0731 458.895 37.7898 464.025 35.3273C469.258 32.8648 475.363 31.6335 482.34 31.6335C489.419 31.6335 495.73 32.9674 501.27 35.6351C506.811 38.3028 511.274 42.0479 514.66 46.8703C517.76 51.2857 519.613 56.3893 520.219 62.1811C520.31 63.0562 519.61 63.8 518.73 63.8H504.921C504.154 63.8 503.512 63.2282 503.367 62.4748C502.549 58.2398 500.465 54.68 497.115 51.7953C493.524 48.6146 488.599 47.0242 482.34 47.0242C476.902 47.0242 472.387 48.2554 468.796 50.718C465.205 53.1805 462.537 56.6177 460.793 61.0297C459.048 65.3391 458.176 70.3154 458.176 75.9587C458.176 81.2941 459.048 86.1678 460.793 90.5798C462.537 94.8892 465.205 98.3265 468.796 100.892C472.387 103.457 476.953 104.739 482.494 104.739C486.803 104.739 490.497 103.97 493.575 102.431C496.653 100.892 499.115 98.8395 500.962 96.2744C502.651 94.052 503.763 91.5214 504.297 88.6828C504.439 87.9251 505.082 87.3478 505.853 87.3478H519.682C520.551 87.3478 521.248 88.0749 521.173 88.9412C520.654 94.9446 518.791 100.211 515.584 104.739C512.095 109.562 507.478 113.307 501.732 115.974C496.089 118.642 489.676 119.976 482.494 119.976Z" fill="#0066FF"/>
<path d="M564.304 119.976C553.032 119.976 544.264 117.651 538.002 113.002C532.139 108.552 528.883 102.517 528.235 94.898C528.161 94.0368 528.857 93.3183 529.721 93.3183H543.043C543.825 93.3183 544.469 93.9148 544.648 94.6767C545.256 97.2672 546.85 99.7074 549.431 101.998C552.458 104.581 557.415 105.872 564.304 105.872C570.462 105.872 575.211 104.736 578.551 102.463C581.891 100.086 583.561 97.1413 583.561 93.6283C583.561 90.4252 582.309 87.9454 579.804 86.1889C577.299 84.3291 573.176 83.0892 567.435 82.4692L558.981 81.6943C550.422 80.7644 543.586 78.2846 538.471 74.2549C533.461 70.1219 530.956 64.5424 530.956 57.5163C530.956 52.0401 532.366 47.3905 535.184 43.5675C538.002 39.7445 541.864 36.7997 546.769 34.7332C551.675 32.6667 557.363 31.6335 563.834 31.6335C573.646 31.6335 581.578 33.8033 587.632 38.1429C593.401 42.2086 596.559 48.0427 597.107 55.6452C597.169 56.4998 596.476 57.2063 595.619 57.2063H582.374C581.552 57.2063 580.892 56.55 580.739 55.7424C580.27 53.2686 578.81 51.1218 576.359 49.302C573.541 47.0289 569.366 45.8923 563.834 45.8923C558.511 45.8923 554.389 46.9772 551.466 49.147C548.648 51.2135 547.239 53.9 547.239 57.2063C547.239 60.0994 548.283 62.4242 550.37 64.1807C552.562 65.8339 556.006 66.9189 560.703 67.4355L569.158 68.2104C578.551 69.2437 586.014 71.8268 591.546 75.9598C597.182 80.0927 600 85.8789 600 93.3183C600 98.5878 598.487 103.237 595.46 107.267C592.433 111.297 588.206 114.448 582.778 116.721C577.455 118.891 571.297 119.976 564.304 119.976Z" fill="#0066FF"/>
</svg>
