<svg width="1281" height="256" viewBox="0 0 1281 256" fill="none" xmlns="http://www.w3.org/2000/svg">
<path d="M4.59219 136.317C1.98845 136.069 1.24049e-06 133.883 1.01183e-06 131.267L0 119.693C-2.28656e-07 117.077 2.04892 114.885 4.65276 114.638C83.6206 107.151 83.4326 107.28 91.0779 26.6545C91.3248 24.0506 93.5174 22 96.1329 22L111.867 22C114.483 22 116.669 23.9885 116.917 26.5922L121.115 70.6677C122.888 89.2815 109.939 105.638 92.2069 108.807C89.5255 109.286 87.36 111.485 87.36 114.209V138.621C87.36 141.613 84.7842 143.955 81.8058 143.671L4.59219 136.317Z" fill="#0066FF"/>
<path d="M86.8852 181.332C85.1125 162.718 98.0613 146.362 115.793 143.194C118.474 142.714 120.64 140.516 120.64 137.792V112.339C120.64 109.347 123.216 107.005 126.194 107.289L203.408 114.643C206.012 114.891 208 117.077 208 119.693V131.267C208 133.883 205.957 136.074 203.354 136.325C127.473 143.629 124.495 146.647 116.925 225.35C116.674 227.954 114.483 230 111.867 230H96.133C93.5175 230 91.3306 228.012 91.0827 225.408L86.8852 181.332Z" fill="#0066FF"/>
<path d="M53.5269 158.202C55.4065 155.812 58.9521 155.6 61.1021 157.75L72.3189 168.966C74.4686 171.116 74.2575 174.662 71.8677 176.541L39.7378 201.809C37.7185 203.397 34.8315 203.224 33.0152 201.408L28.6607 197.053C26.8445 195.237 26.6725 192.35 28.2603 190.331L53.5269 158.202Z" fill="#0066FF"/>
<path d="M147.652 157.733C149.802 155.583 153.347 155.794 155.227 158.184L180.495 190.313C182.083 192.332 181.911 195.22 180.094 197.037L175.74 201.39C173.923 203.207 171.036 203.378 169.017 201.79L136.887 176.524C134.497 174.644 134.286 171.099 136.436 168.949L147.652 157.733Z" fill="#0066FF"/>
<path d="M32.9976 49.976C34.8141 48.1597 37.701 47.9877 39.7202 49.5757L71.8501 74.8432C74.2394 76.7229 74.4507 80.2676 72.3013 82.4175L61.0845 93.6343C58.9347 95.7835 55.3899 95.5722 53.5103 93.1831L28.2427 61.0532C26.6547 59.0339 26.8266 56.146 28.6431 54.3296L32.9976 49.976Z" fill="#0066FF"/>
<path d="M168.999 49.5571C171.018 47.9695 173.905 48.1414 175.721 49.9575L180.076 54.312C181.892 56.1284 182.064 59.0155 180.476 61.0346L155.209 93.1645C153.329 95.5545 149.783 95.7657 147.633 93.6157L136.418 82.3999C134.268 80.2499 134.479 76.7043 136.869 74.8247L168.999 49.5571Z" fill="#0066FF"/>
<path d="M407.128 35.7822C407.128 37.5788 405.672 39.0352 403.875 39.0352H306.288C304.492 39.0352 303.035 40.4915 303.035 42.2881V107.346C303.035 109.142 304.492 110.599 306.288 110.599H361.588C363.384 110.599 364.841 112.055 364.841 113.852V136.622C364.841 138.419 363.384 139.875 361.588 139.875H306.288C304.492 139.875 303.035 141.331 303.035 143.128V248.034C303.035 249.831 301.579 251.287 299.782 251.287H267.253C265.456 251.287 264 249.831 264 248.034V175.657C264 157.269 276.715 141.854 293.832 137.717C295.376 137.343 296.529 136.001 296.529 134.412V116.061C296.529 114.472 295.376 113.13 293.832 112.757C276.715 108.62 264 93.2051 264 74.8174V3.25291C264 1.45638 265.456 0 267.253 0H403.875C405.672 0 407.128 1.45638 407.128 3.25291V35.7822Z" fill="#0066FF"/>
<path d="M686.374 74.8169C688.17 74.8169 689.626 76.2733 689.626 78.0698V100.84C689.626 102.637 688.17 104.093 686.374 104.093H634.425C632.629 104.093 631.172 105.55 631.172 107.346V247.221C631.172 249.018 629.716 250.474 627.919 250.474H595.39C593.594 250.474 592.137 249.018 592.137 247.221V107.73C592.137 89.5527 606.873 74.817 625.05 74.8169H686.374Z" fill="#0066FF"/>
<path d="M791.034 71.5642C791.034 73.3608 792.491 74.8171 794.287 74.8171H840.073C841.87 74.8171 843.326 76.2735 843.326 78.07V100.841C843.326 102.637 841.87 104.094 840.073 104.094H794.287C792.491 104.094 791.034 105.55 791.034 107.346L791.035 218.747C791.035 220.543 792.492 222 794.288 222H840.073C841.87 222 843.326 223.456 843.326 225.253V247.747C843.326 249.543 841.87 251 840.073 251H789.347C789.336 251 789.326 250.991 789.326 250.979C789.326 250.968 789.318 250.959 789.307 250.959C768.57 250.055 752.034 232.96 752.034 212V107.346C752.034 105.55 750.578 104.094 748.781 104.094H709.957C708.161 104.094 706.704 102.637 706.704 100.841V78.07C706.704 76.2735 708.161 74.8171 709.957 74.8171H748.781C750.578 74.8171 752.034 73.3608 752.034 71.5642V10.2527C752.034 8.45613 753.491 6.99976 755.287 6.99976H787.781C789.578 6.99976 791.034 8.45613 791.034 10.2527V71.5642Z" fill="#0066FF"/>
<path d="M910.431 74.8164C917.439 74.8167 923.121 80.498 923.121 87.5059V248.114C923.121 249.866 921.7 251.286 919.948 251.286H887.258C885.506 251.286 884.086 249.866 884.086 248.114V107.266C884.086 105.514 882.665 104.093 880.913 104.093H863.576C861.824 104.093 860.404 102.673 860.404 100.921V77.9893C860.404 76.2373 861.824 74.8165 863.576 74.8164H910.431Z" fill="#0066FF"/>
<path d="M892.73 6.09961C906.092 6.09984 916.924 16.9314 916.924 30.293C916.923 43.6545 906.092 54.4861 892.73 54.4863C879.369 54.4863 868.536 43.6546 868.536 30.293C868.536 16.9313 879.368 6.09961 892.73 6.09961Z" fill="#0066FF"/>
<path d="M479.922 255.999C464.378 255.999 450.695 253.481 438.872 248.446C427.05 243.191 417.088 236.295 408.988 227.757C400.887 218.999 394.757 209.257 390.598 198.529C386.438 187.801 384.358 176.636 384.358 165.033V158.793C384.358 147.19 386.438 135.915 390.598 124.968C394.976 114.021 401.325 104.279 409.645 95.7405C417.964 86.9832 427.926 80.0869 439.529 75.0514C451.351 70.016 464.816 67.4983 479.922 67.4983C494.809 67.4983 508.164 70.016 519.987 75.0514C531.809 80.0869 541.77 86.9832 549.871 95.7405C558.19 104.279 564.43 114.021 568.589 124.968C572.968 135.915 575.157 147.19 575.157 158.793V165.033C575.157 176.636 573.078 187.801 568.918 198.529C564.758 209.257 558.628 218.999 550.528 227.757C542.427 236.295 532.466 243.191 520.643 248.446C508.821 253.481 495.247 255.999 479.922 255.999ZM479.922 223.487C492.182 223.487 502.581 220.86 511.12 215.606C519.877 210.133 526.554 202.798 531.152 193.603C535.75 184.189 538.048 173.68 538.048 162.077C538.048 150.036 535.64 139.417 530.824 130.222C526.226 120.808 519.549 113.474 510.791 108.22C502.253 102.746 491.963 100.01 479.922 100.01C467.881 100.01 457.481 102.746 448.724 108.22C439.967 113.474 433.289 120.808 428.692 130.222C424.094 139.417 421.795 150.036 421.795 162.077C421.795 173.68 423.985 184.189 428.363 193.603C432.961 202.798 439.529 210.133 448.067 215.606C456.825 220.86 467.443 223.487 479.922 223.487Z" fill="#0066FF"/>
<path d="M1029.52 256C1014.42 256 1001.28 253.482 990.115 248.447C978.949 243.192 969.644 236.187 962.201 227.429C954.976 218.453 949.502 208.601 945.781 197.873C942.059 186.927 940.198 175.98 940.198 165.033V158.794C940.198 147.409 942.059 136.353 945.781 125.625C949.502 114.678 955.085 104.936 962.529 96.3975C969.973 87.6402 979.168 80.6343 990.115 75.3799C1001.28 70.1255 1014.31 67.4983 1029.19 67.4983C1044.3 67.4983 1057.76 70.3444 1069.59 76.0367C1081.41 81.729 1090.93 89.72 1098.16 100.01C1104.77 109.431 1108.73 120.321 1110.02 132.679C1110.21 134.547 1108.72 136.134 1106.84 136.134H1077.38C1075.74 136.134 1074.37 134.914 1074.06 133.306C1072.32 124.27 1067.87 116.674 1060.72 110.519C1053.06 103.732 1042.55 100.338 1029.19 100.338C1017.59 100.338 1007.96 102.966 1000.29 108.22C992.632 113.474 986.94 120.809 983.218 130.223C979.496 139.418 977.635 150.036 977.635 162.078C977.635 173.462 979.496 183.861 983.218 193.276C986.94 202.471 992.632 209.805 1000.29 215.278C1007.96 220.752 1017.7 223.488 1029.52 223.488C1038.72 223.488 1046.6 221.846 1053.17 218.562C1059.74 215.278 1064.99 210.9 1068.93 205.426C1072.53 200.684 1074.91 195.285 1076.04 189.228C1076.35 187.611 1077.72 186.379 1079.37 186.379H1108.87C1110.73 186.379 1112.21 187.931 1112.05 189.779C1110.95 202.589 1106.97 213.825 1100.13 223.488C1092.68 233.778 1082.83 241.769 1070.57 247.462C1058.53 253.154 1044.85 256 1029.52 256Z" fill="#0066FF"/>
<path d="M1204.09 256C1180.03 256 1161.33 251.039 1147.96 241.118C1135.45 231.624 1128.51 218.747 1127.12 202.49C1126.97 200.652 1128.45 199.119 1130.29 199.119H1158.72C1160.39 199.119 1161.76 200.392 1162.15 202.017C1163.44 207.545 1166.84 212.752 1172.35 217.638C1178.81 223.15 1189.39 225.906 1204.09 225.906C1217.23 225.906 1227.36 223.481 1234.49 218.63C1241.61 213.56 1245.18 207.276 1245.18 199.78C1245.18 192.946 1242.5 187.654 1237.16 183.906C1231.81 179.938 1223.02 177.292 1210.77 175.969L1192.73 174.316C1174.47 172.332 1159.88 167.04 1148.97 158.442C1138.28 149.623 1132.93 137.718 1132.93 122.726C1132.93 111.041 1135.94 101.12 1141.95 92.9626C1147.96 84.8052 1156.2 78.5218 1166.67 74.1124C1177.14 69.703 1189.28 67.4983 1203.08 67.4983C1224.02 67.4983 1240.95 72.1282 1253.86 81.3879C1266.17 90.063 1272.91 102.511 1274.08 118.733C1274.21 120.557 1272.73 122.065 1270.91 122.065H1242.64C1240.89 122.065 1239.48 120.664 1239.16 118.941C1238.15 113.662 1235.04 109.082 1229.81 105.199C1223.8 100.348 1214.89 97.9231 1203.08 97.9231C1191.73 97.9231 1182.93 100.238 1176.69 104.868C1170.68 109.277 1167.67 115.01 1167.67 122.065C1167.67 128.238 1169.9 133.198 1174.35 136.946C1179.03 140.474 1186.38 142.789 1196.4 143.891L1214.44 145.545C1234.49 147.749 1250.41 153.261 1262.21 162.08C1274.24 170.899 1280.25 183.245 1280.25 199.119C1280.25 210.363 1277.02 220.284 1270.57 228.882C1264.11 237.481 1255.09 244.205 1243.51 249.055C1232.15 253.685 1219.01 256 1204.09 256Z" fill="#0066FF"/>
</svg>
