<svg width="1017" height="576" viewBox="0 0 1017 576" fill="none" xmlns="http://www.w3.org/2000/svg">
<path d="M143.128 355.782C143.128 357.579 141.672 359.035 139.875 359.035H42.2881C40.4915 359.035 39.0352 360.492 39.0352 362.288V427.346C39.0352 429.142 40.4915 430.599 42.2881 430.599H97.5879C99.3844 430.599 100.841 432.055 100.841 433.852V456.622C100.841 458.419 99.3844 459.875 97.5879 459.875H42.2881C40.4915 459.875 39.0352 461.331 39.0352 463.128V568.034C39.0352 569.831 37.5788 571.287 35.7822 571.287H3.25291C1.45638 571.287 0 569.831 0 568.034V495.657C0 477.269 12.7148 461.854 29.8316 457.717C31.3759 457.343 32.5293 456.001 32.5293 454.412V436.061C32.5293 434.472 31.3759 433.13 29.8316 432.757C12.7149 428.62 0.000134969 413.205 0 394.817V323.253C0 321.456 1.45638 320 3.25291 320H139.875C141.672 320 143.128 321.456 143.128 323.253V355.782Z" fill="black"/>
<path d="M422.374 394.817C424.17 394.817 425.626 396.273 425.626 398.07V420.84C425.626 422.637 424.17 424.093 422.374 424.093H370.425C368.629 424.093 367.172 425.55 367.172 427.346V567.221C367.172 569.018 365.716 570.474 363.919 570.474H331.39C329.594 570.474 328.137 569.018 328.137 567.221V427.73C328.137 409.553 342.873 394.817 361.05 394.817H422.374Z" fill="black"/>
<path d="M527.034 391.564C527.034 393.361 528.491 394.817 530.287 394.817H576.073C577.87 394.817 579.326 396.274 579.326 398.07V420.841C579.326 422.637 577.87 424.094 576.073 424.094H530.287C528.491 424.094 527.034 425.55 527.034 427.346L527.035 538.747C527.035 540.543 528.492 542 530.288 542H576.073C577.87 542 579.326 543.456 579.326 545.253V567.747C579.326 569.543 577.87 571 576.073 571H525.347C525.336 571 525.326 570.991 525.326 570.979C525.326 570.968 525.318 570.959 525.307 570.959C504.57 570.055 488.034 552.96 488.034 532V427.346C488.034 425.55 486.578 424.094 484.781 424.094H445.957C444.161 424.094 442.704 422.637 442.704 420.841V398.07C442.704 396.274 444.161 394.817 445.957 394.817H484.781C486.578 394.817 488.034 393.361 488.034 391.564V330.253C488.034 328.456 489.491 327 491.287 327H523.781C525.578 327 527.034 328.456 527.034 330.253V391.564Z" fill="black"/>
<path d="M646.431 394.816C653.439 394.817 659.121 400.498 659.121 407.506V568.114C659.121 569.866 657.7 571.286 655.948 571.286H623.258C621.506 571.286 620.086 569.866 620.086 568.114V427.266C620.086 425.514 618.665 424.093 616.913 424.093H599.576C597.824 424.093 596.404 422.673 596.404 420.921V397.989C596.404 396.237 597.824 394.816 599.576 394.816H646.431Z" fill="black"/>
<path d="M628.73 326.1C642.092 326.1 652.924 336.931 652.924 350.293C652.923 363.654 642.092 374.486 628.73 374.486C615.369 374.486 604.536 363.655 604.536 350.293C604.536 336.931 615.368 326.1 628.73 326.1Z" fill="black"/>
<path d="M215.922 575.999C200.378 575.999 186.695 573.481 174.872 568.446C163.05 563.191 153.088 556.295 144.988 547.757C136.887 538.999 130.757 529.257 126.598 518.529C122.438 507.801 120.358 496.636 120.358 485.033V478.793C120.358 467.19 122.438 455.915 126.598 444.968C130.976 434.021 137.325 424.279 145.645 415.741C153.964 406.983 163.926 400.087 175.529 395.051C187.351 390.016 200.816 387.498 215.922 387.498C230.809 387.498 244.164 390.016 255.987 395.051C267.809 400.087 277.77 406.983 285.871 415.741C294.19 424.279 300.43 434.021 304.589 444.968C308.968 455.915 311.157 467.19 311.157 478.793V485.033C311.157 496.636 309.078 507.801 304.918 518.529C300.758 529.257 294.628 538.999 286.528 547.757C278.427 556.295 268.466 563.191 256.643 568.446C244.821 573.481 231.247 575.999 215.922 575.999ZM215.922 543.487C228.182 543.487 238.581 540.86 247.12 535.606C255.877 530.133 262.554 522.798 267.152 513.603C271.75 504.189 274.048 493.68 274.048 482.077C274.048 470.036 271.64 459.417 266.824 450.222C262.226 440.808 255.549 433.474 246.791 428.22C238.253 422.746 227.963 420.01 215.922 420.01C203.881 420.01 193.481 422.746 184.724 428.22C175.967 433.474 169.289 440.808 164.692 450.222C160.094 459.417 157.795 470.036 157.795 482.077C157.795 493.68 159.985 504.189 164.363 513.603C168.961 522.798 175.529 530.133 184.067 535.606C192.825 540.86 203.443 543.487 215.922 543.487Z" fill="black"/>
<path d="M765.523 576C750.416 576 737.28 573.482 726.115 568.447C714.949 563.192 705.644 556.187 698.201 547.429C690.976 538.453 685.502 528.601 681.781 517.873C678.059 506.927 676.198 495.98 676.198 485.033V478.794C676.198 467.409 678.059 456.353 681.781 445.625C685.502 434.678 691.085 424.936 698.529 416.398C705.973 407.64 715.168 400.634 726.115 395.38C737.28 390.125 750.307 387.498 765.194 387.498C780.301 387.498 793.765 390.344 805.587 396.037C817.41 401.729 826.933 409.72 834.158 420.01C840.773 429.431 844.727 440.321 846.019 452.679C846.215 454.547 844.721 456.134 842.843 456.134H813.377C811.74 456.134 810.372 454.914 810.061 453.306C808.315 444.27 803.869 436.674 796.721 430.519C789.058 423.732 778.549 420.338 765.194 420.338C753.591 420.338 743.958 422.966 736.295 428.22C728.632 433.474 722.94 440.809 719.218 450.223C715.496 459.418 713.635 470.036 713.635 482.078C713.635 493.462 715.496 503.861 719.218 513.276C722.94 522.471 728.632 529.805 736.295 535.278C743.958 540.752 753.7 543.488 765.523 543.488C774.718 543.488 782.599 541.846 789.167 538.562C795.735 535.278 800.99 530.9 804.931 525.426C808.535 520.684 810.906 515.285 812.045 509.228C812.349 507.611 813.721 506.379 815.366 506.379H844.873C846.728 506.379 848.214 507.931 848.055 509.779C846.949 522.589 842.973 533.825 836.129 543.488C828.685 553.778 818.833 561.769 806.573 567.462C794.531 573.154 780.848 576 765.523 576Z" fill="black"/>
<path d="M940.087 576C916.034 576 897.326 571.039 883.964 561.118C871.454 551.624 864.507 538.747 863.123 522.49C862.967 520.652 864.45 519.119 866.295 519.119H894.72C896.39 519.119 897.763 520.392 898.145 522.017C899.443 527.545 902.845 532.752 908.351 537.638C914.809 543.15 925.388 545.906 940.087 545.906C953.227 545.906 963.36 543.481 970.487 538.63C977.613 533.56 981.177 527.276 981.177 519.78C981.177 512.946 978.504 507.654 973.159 503.906C967.814 499.938 959.017 497.292 946.768 495.969L928.729 494.316C910.466 492.332 895.879 487.04 884.966 478.442C874.276 469.623 868.931 457.718 868.931 442.726C868.931 431.041 871.937 421.12 877.951 412.963C883.964 404.805 892.204 398.522 902.671 394.112C913.139 389.703 925.276 387.498 939.085 387.498C960.019 387.498 976.945 392.128 989.862 401.388C1002.17 410.063 1008.91 422.511 1010.08 438.733C1010.21 440.557 1008.73 442.065 1006.91 442.065H978.643C976.889 442.065 975.482 440.664 975.155 438.941C974.155 433.662 971.04 429.082 965.81 425.199C959.797 420.348 950.888 417.923 939.085 417.923C927.726 417.923 918.929 420.238 912.693 424.868C906.68 429.277 903.674 435.01 903.674 442.065C903.674 448.238 905.901 453.198 910.355 456.946C915.032 460.474 922.381 462.789 932.403 463.891L950.443 465.545C970.487 467.749 986.41 473.261 998.214 482.08C1010.24 490.899 1016.25 503.245 1016.25 519.119C1016.25 530.363 1013.02 540.284 1006.57 548.882C1000.11 557.481 991.087 564.205 979.506 569.055C968.148 573.685 955.008 576 940.087 576Z" fill="black"/>
<path d="M408.592 114.317C405.988 114.069 404 111.883 404 109.267L404 97.693C404 95.0775 406.049 92.885 408.653 92.6381C487.621 85.1505 487.433 85.2795 495.078 4.65447C495.325 2.05064 497.517 1.60417e-06 500.133 1.37551e-06L515.867 0C518.483 -2.28656e-07 520.669 1.98847 520.917 4.59221L525.115 48.6677C526.888 67.2815 513.939 83.6384 496.207 86.8069C493.526 87.2861 491.36 89.4848 491.36 92.2087V116.621C491.36 119.613 488.784 121.955 485.806 121.671L408.592 114.317Z" fill="black"/>
<path d="M490.885 159.332C489.112 140.719 502.061 124.362 519.793 121.194C522.474 120.714 524.64 118.516 524.64 115.792V90.3393C524.64 87.3474 527.216 85.0053 530.194 85.289L607.408 92.6426C610.012 92.8906 612 95.0774 612 97.693V109.267C612 111.883 609.957 114.074 607.354 114.325C531.473 121.629 528.495 124.647 520.925 203.35C520.674 205.954 518.483 208 515.867 208H500.133C497.517 208 495.331 206.012 495.083 203.408L490.885 159.332Z" fill="black"/>
<path d="M457.527 136.202C459.406 133.812 462.952 133.6 465.102 135.75L476.319 146.966C478.469 149.116 478.258 152.662 475.868 154.541L443.738 179.809C441.719 181.397 438.832 181.224 437.015 179.408L432.661 175.053C430.845 173.237 430.672 170.35 432.26 168.331L457.527 136.202Z" fill="black"/>
<path d="M551.652 135.733C553.802 133.583 557.347 133.794 559.227 136.184L584.495 168.313C586.083 170.332 585.911 173.22 584.094 175.037L579.74 179.39C577.923 181.207 575.036 181.378 573.017 179.79L540.887 154.524C538.497 152.644 538.286 149.099 540.436 146.949L551.652 135.733Z" fill="black"/>
<path d="M436.998 27.976C438.814 26.1597 441.701 25.9877 443.72 27.5757L475.85 52.8432C478.239 54.7229 478.451 58.2676 476.301 60.4175L465.085 71.6343C462.935 73.7835 459.39 73.5722 457.51 71.1831L432.243 39.0532C430.655 37.0339 430.827 34.146 432.643 32.3296L436.998 27.976Z" fill="black"/>
<path d="M572.999 27.5571C575.018 25.9695 577.905 26.1414 579.721 27.9575L584.076 32.312C585.892 34.1284 586.064 37.0155 584.476 39.0346L559.209 71.1645C557.329 73.5545 553.783 73.7657 551.633 71.6157L540.418 60.3999C538.268 58.2499 538.479 54.7043 540.869 52.8247L572.999 27.5571Z" fill="black"/>
</svg>
