<svg width="208" height="208" viewBox="0 0 208 208" fill="none" xmlns="http://www.w3.org/2000/svg">
<path d="M4.59219 114.317C1.98845 114.069 1.24049e-06 111.883 1.01183e-06 109.267L0 97.693C-2.28656e-07 95.0775 2.04892 92.885 4.65276 92.6381C83.6206 85.1505 83.4326 85.2795 91.0779 4.65447C91.3248 2.05064 93.5174 1.60417e-06 96.1329 1.37551e-06L111.867 0C114.483 -2.28656e-07 116.669 1.98847 116.917 4.59221L121.115 48.6677C122.888 67.2815 109.939 83.6383 92.2069 86.8069C89.5255 87.2861 87.36 89.4848 87.36 92.2087V116.621C87.36 119.613 84.7842 121.955 81.8058 121.671L4.59219 114.317Z" fill="#0066FF"/>
<path d="M86.8852 159.332C85.1125 140.718 98.0613 124.362 115.793 121.194C118.474 120.714 120.64 118.516 120.64 115.792V90.3393C120.64 87.3474 123.216 85.0053 126.194 85.289L203.408 92.6426C206.012 92.8906 208 95.0774 208 97.693V109.267C208 111.883 205.957 114.074 203.354 114.325C127.473 121.629 124.495 124.647 116.925 203.35C116.674 205.954 114.483 208 111.867 208H96.133C93.5175 208 91.3306 206.012 91.0827 203.408L86.8852 159.332Z" fill="#0066FF"/>
<path d="M53.5269 136.201C55.4065 133.811 58.9521 133.6 61.1021 135.75L72.3189 146.966C74.4686 149.116 74.2575 152.662 71.8677 154.541L39.7378 179.809C37.7185 181.397 34.8315 181.224 33.0152 179.407L28.6607 175.053C26.8445 173.236 26.6725 170.349 28.2603 168.33L53.5269 136.201Z" fill="#0066FF"/>
<path d="M147.652 135.733C149.802 133.583 153.347 133.794 155.227 136.184L180.495 168.313C182.083 170.332 181.911 173.22 180.094 175.036L175.74 179.39C173.923 181.206 171.036 181.378 169.017 179.79L136.887 154.524C134.497 152.644 134.286 149.098 136.436 146.948L147.652 135.733Z" fill="#0066FF"/>
<path d="M32.9976 27.9758C34.8141 26.1595 37.701 25.9875 39.7202 27.5754L71.8501 52.843C74.2394 54.7226 74.4507 58.2674 72.3013 60.4172L61.0845 71.634C58.9347 73.7833 55.3899 73.572 53.5103 71.1828L28.2427 39.053C26.6547 37.0337 26.8266 34.1458 28.6431 32.3293L32.9976 27.9758Z" fill="#0066FF"/>
<path d="M168.999 27.5569C171.018 25.9693 173.905 26.1412 175.721 27.9572L180.076 32.3117C181.892 34.1281 182.064 37.0153 180.476 39.0344L155.209 71.1643C153.329 73.5542 149.783 73.7654 147.633 71.6155L136.418 60.3996C134.268 58.2496 134.479 54.704 136.869 52.8244L168.999 27.5569Z" fill="#0066FF"/>
</svg>
