<svg width="208" height="208" viewBox="0 0 208 208" fill="none" xmlns="http://www.w3.org/2000/svg">
<path d="M4.59219 114.317C1.98845 114.069 1.24049e-06 111.883 1.01183e-06 109.267L0 97.693C-2.28656e-07 95.0775 2.04892 92.885 4.65276 92.6381C83.6206 85.1505 83.4326 85.2795 91.0779 4.65447C91.3248 2.05064 93.5174 1.60417e-06 96.1329 1.37551e-06L111.867 0C114.483 -2.28656e-07 116.669 1.98847 116.917 4.59221L121.115 48.6677C122.888 67.2815 109.939 83.6384 92.2069 86.8069C89.5255 87.2861 87.36 89.4848 87.36 92.2087V116.621C87.36 119.613 84.7842 121.955 81.8058 121.671L4.59219 114.317Z" fill="#585858"/>
<path d="M86.8852 159.332C85.1125 140.719 98.0613 124.362 115.793 121.194C118.474 120.714 120.64 118.516 120.64 115.792V90.3393C120.64 87.3474 123.216 85.0053 126.194 85.289L203.408 92.6426C206.012 92.8906 208 95.0774 208 97.693V109.267C208 111.883 205.957 114.074 203.354 114.325C127.473 121.629 124.495 124.647 116.925 203.35C116.674 205.954 114.483 208 111.867 208H96.133C93.5175 208 91.3306 206.012 91.0827 203.408L86.8852 159.332Z" fill="#585858"/>
<path d="M53.5269 136.202C55.4065 133.812 58.9521 133.6 61.1021 135.75L72.3189 146.966C74.4686 149.116 74.2575 152.662 71.8677 154.541L39.7378 179.809C37.7185 181.397 34.8315 181.224 33.0152 179.408L28.6607 175.053C26.8445 173.237 26.6725 170.35 28.2603 168.331L53.5269 136.202Z" fill="#101010"/>
<path d="M147.652 135.733C149.802 133.583 153.347 133.794 155.227 136.184L180.495 168.313C182.083 170.332 181.911 173.22 180.094 175.037L175.74 179.39C173.923 181.207 171.036 181.378 169.017 179.79L136.887 154.524C134.497 152.644 134.286 149.099 136.436 146.949L147.652 135.733Z" fill="#101010"/>
<path d="M32.9976 27.976C34.8141 26.1597 37.701 25.9877 39.7202 27.5757L71.8501 52.8432C74.2394 54.7229 74.4507 58.2676 72.3013 60.4175L61.0845 71.6343C58.9347 73.7835 55.3899 73.5722 53.5103 71.1831L28.2427 39.0532C26.6547 37.0339 26.8266 34.146 28.6431 32.3296L32.9976 27.976Z" fill="#101010"/>
<path d="M168.999 27.5571C171.018 25.9695 173.905 26.1414 175.721 27.9575L180.076 32.312C181.892 34.1284 182.064 37.0155 180.476 39.0346L155.209 71.1645C153.329 73.5545 149.783 73.7657 147.633 71.6157L136.418 60.3999C134.268 58.2499 134.479 54.7043 136.869 52.8247L168.999 27.5571Z" fill="#101010"/>
</svg>
