<svg width="233" height="252" viewBox="0 0 233 252" fill="none" xmlns="http://www.w3.org/2000/svg">
<path d="M143.128 35.7822C143.128 37.5788 141.672 39.0352 139.875 39.0352H42.2881C40.4915 39.0352 39.0352 40.4915 39.0352 42.2881V107.346C39.0352 109.142 40.4915 110.599 42.2881 110.599H97.5879C99.3844 110.599 100.841 112.055 100.841 113.852V136.622C100.841 138.419 99.3844 139.875 97.5879 139.875H42.2881C40.4915 139.875 39.0352 141.331 39.0352 143.128V248.034C39.0352 249.831 37.5788 251.287 35.7822 251.287H3.25291C1.45638 251.287 0 249.831 0 248.034V175.657C0 157.269 12.7148 141.854 29.8316 137.717C31.3759 137.343 32.5293 136.001 32.5293 134.412V116.061C32.5293 114.472 31.3759 113.13 29.8316 112.757C12.7149 108.62 0.000134969 93.2051 0 74.8174V3.25291C0 1.45638 1.45638 0 3.25291 0H139.875C141.672 0 143.128 1.45638 143.128 3.25291V35.7822Z" fill="#0066FF"/>
<path d="M97.0688 188.395C95.3288 188.229 94 186.768 94 185.02L94 177.285C94 175.537 95.3692 174.072 97.1093 173.907C149.881 168.903 149.755 168.99 154.865 115.11C155.03 113.37 156.495 112 158.243 112L168.757 112C170.505 112 171.967 113.329 172.132 115.069L174.937 144.523C176.122 156.962 167.469 167.893 155.619 170.01C153.827 170.331 152.38 171.8 152.38 173.62V189.934C152.38 191.933 150.659 193.499 148.668 193.309L97.0688 188.395Z" fill="#0066FF"/>
<path d="M152.063 218.477C150.878 206.038 159.531 195.107 171.381 192.99C173.173 192.67 174.62 191.2 174.62 189.38V172.371C174.62 170.372 176.341 168.806 178.332 168.996L229.931 173.91C231.671 174.076 233 175.537 233 177.285V185.02C233 186.768 231.635 188.232 229.895 188.4C179.186 193.281 177.196 195.298 172.137 247.893C171.97 249.633 170.505 251 168.757 251H158.243C156.495 251 155.033 249.671 154.868 247.931L152.063 218.477Z" fill="#0066FF"/>
<path d="M129.77 203.019C131.027 201.422 133.396 201.281 134.833 202.718L142.329 210.213C143.765 211.65 143.624 214.019 142.027 215.275L120.556 232.161C119.206 233.222 117.277 233.107 116.063 231.893L113.153 228.983C111.939 227.769 111.824 225.84 112.886 224.49L129.77 203.019Z" fill="white"/>
<path d="M192.671 202.706C194.108 201.269 196.477 201.411 197.734 203.008L214.619 224.478C215.68 225.828 215.565 227.758 214.352 228.972L211.442 231.881C210.228 233.095 208.298 233.21 206.949 232.149L185.478 215.264C183.881 214.008 183.739 211.638 185.176 210.201L192.671 202.706Z" fill="white"/>
<path d="M116.051 130.696C117.265 129.482 119.195 129.367 120.544 130.428L142.015 147.314C143.612 148.57 143.753 150.939 142.317 152.375L134.821 159.871C133.384 161.307 131.015 161.166 129.759 159.57L112.874 138.098C111.813 136.749 111.928 134.819 113.141 133.605L116.051 130.696Z" fill="white"/>
<path d="M206.937 130.416C208.286 129.355 210.215 129.47 211.429 130.683L214.339 133.593C215.553 134.807 215.668 136.736 214.607 138.086L197.721 159.557C196.465 161.154 194.096 161.295 192.659 159.859L185.164 152.363C183.727 150.927 183.868 148.557 185.465 147.301L206.937 130.416Z" fill="white"/>
</svg>
