<svg width="340" height="366" viewBox="0 0 340 366" fill="none" xmlns="http://www.w3.org/2000/svg">
<path d="M208.426 52.1068C208.426 54.7229 206.305 56.8437 203.689 56.8437H61.5807C58.9646 56.8437 56.8438 58.9645 56.8438 61.5807V156.319C56.8438 158.935 58.9646 161.056 61.5807 161.056H142.109C144.726 161.056 146.846 163.177 146.846 165.793V198.952C146.846 201.568 144.726 203.689 142.109 203.689H61.5807C58.9646 203.689 56.8438 205.809 56.8438 208.425V361.192C56.8438 363.808 54.723 365.929 52.1068 365.929H4.73695C2.12081 365.929 0 363.808 0 361.192V255.795C0 229.019 18.5156 206.57 43.4413 200.545C45.6902 200.002 47.3698 198.048 47.3698 195.734V169.01C47.3698 166.697 45.6902 164.742 43.4413 164.199C18.5156 158.175 0.000196545 135.727 0 108.95V4.73694C0 2.1208 2.1208 0 4.73695 0H203.689C206.305 0 208.426 2.1208 208.426 4.73694V52.1068Z" fill="#0066FF"/>
<path d="M141.353 274.344C138.819 274.103 136.884 271.974 136.884 269.429L136.884 258.166C136.884 255.621 138.878 253.487 141.412 253.247C218.259 245.96 218.077 246.086 225.516 167.626C225.757 165.092 227.89 163.096 230.436 163.096L245.747 163.096C248.293 163.096 250.421 165.031 250.662 167.565L254.747 210.457C256.472 228.571 243.871 244.489 226.615 247.572C224.006 248.038 221.898 250.178 221.898 252.829V276.585C221.898 279.497 219.392 281.776 216.493 281.5L141.353 274.344Z" fill="#0066FF"/>
<path d="M221.436 318.15C219.711 300.036 232.312 284.119 249.568 281.035C252.177 280.569 254.285 278.429 254.285 275.779V251.01C254.285 248.098 256.791 245.819 259.69 246.095L334.83 253.251C337.364 253.493 339.299 255.621 339.299 258.166V269.429C339.299 271.974 337.311 274.107 334.777 274.351C260.934 281.459 258.037 284.396 250.669 360.986C250.426 363.52 248.293 365.511 245.747 365.511H230.436C227.891 365.511 225.762 363.576 225.521 361.042L221.436 318.15Z" fill="#0066FF"/>
<path d="M188.973 295.64C190.802 293.315 194.252 293.109 196.345 295.201L207.26 306.116C209.352 308.208 209.147 311.659 206.821 313.488L175.554 338.077C173.589 339.622 170.779 339.454 169.012 337.686L164.774 333.449C163.007 331.681 162.84 328.871 164.385 326.907L188.973 295.64Z" fill="white"/>
<path d="M280.57 295.184C282.663 293.092 286.113 293.298 287.942 295.623L312.531 326.889C314.076 328.854 313.909 331.665 312.141 333.432L307.904 337.669C306.136 339.437 303.327 339.604 301.362 338.059L270.095 313.471C267.769 311.642 267.564 308.191 269.656 306.099L280.57 295.184Z" fill="white"/>
<path d="M168.995 190.321C170.763 188.554 173.572 188.386 175.537 189.931L206.804 214.52C209.129 216.35 209.335 219.799 207.243 221.891L196.328 232.807C194.235 234.898 190.786 234.693 188.957 232.368L164.368 201.101C162.822 199.136 162.99 196.325 164.757 194.558L168.995 190.321Z" fill="white"/>
<path d="M301.344 189.913C303.309 188.368 306.118 188.536 307.886 190.303L312.123 194.541C313.891 196.308 314.058 199.118 312.513 201.083L287.924 232.35C286.095 234.676 282.644 234.881 280.552 232.789L269.638 221.874C267.545 219.782 267.751 216.332 270.077 214.502L301.344 189.913Z" fill="white"/>
</svg>
