<svg width="459" height="406" viewBox="0 0 459 406" fill="none" xmlns="http://www.w3.org/2000/svg">
<path d="M150.848 163.32C150.848 165.306 149.24 166.916 147.257 166.916H100.566C98.582 166.916 96.974 168.525 96.974 170.511V369.145C96.974 371.131 98.582 372.74 100.566 372.74H147.257C149.24 372.74 150.848 374.35 150.848 376.336V401.502C150.848 403.487 149.24 405.097 147.257 405.097H3.59163C1.60803 405.097 0 403.487 0 401.502V376.336C0 374.35 1.60803 372.74 3.59163 372.74H50.2828C52.2664 372.74 53.8745 371.131 53.8745 369.145V170.511C53.8745 168.525 52.2664 166.916 50.2828 166.916H3.59163C1.60803 166.916 0 165.306 0 163.32V138.154C0 136.168 1.60803 134.559 3.59163 134.559H147.257C149.24 134.559 150.848 136.168 150.848 138.154V163.32Z" fill="#0066FF"/>
<path fill-rule="evenodd" clip-rule="evenodd" d="M316.244 134.568C316.244 134.574 316.248 134.578 316.254 134.578L318.705 134.57C320.112 134.565 321.345 135.513 321.703 136.875L391.22 401.257C391.735 403.217 390.258 405.136 388.232 405.137H351.672C350.268 405.137 349.04 404.189 348.683 402.829L329.028 327.903C328.614 326.323 327.187 325.221 325.554 325.221H231.397C229.772 325.221 228.349 326.313 227.928 327.885L207.947 402.472C207.526 404.043 206.103 405.136 204.478 405.136L168.961 405.139C166.599 405.139 164.88 402.897 165.492 400.613L177.062 357.423C182.772 336.109 200.304 320.444 221.453 316.732C222.796 316.497 223.93 315.574 224.369 314.281L229.492 299.178C230.186 297.131 228.921 294.952 226.876 294.256C210.996 288.857 200.947 271.815 205.458 254.426L235.858 137.25C236.269 135.665 237.698 134.559 239.334 134.559H316.235C316.24 134.559 316.244 134.563 316.244 134.568ZM271.868 174.719C270.232 174.719 268.802 175.826 268.391 177.411L240.155 286.244C239.564 288.521 241.281 290.743 243.631 290.743H314.624C316.978 290.743 318.696 288.514 318.098 286.234L289.548 177.402C289.133 175.821 287.706 174.719 286.074 174.719H271.868Z" fill="#0066FF"/>
<path d="M325.952 74.3484C324.258 74.1872 322.965 72.7649 322.965 71.0639L322.965 63.5365C322.965 61.8354 324.298 60.4095 325.991 60.249C377.349 55.3793 377.227 55.4631 382.199 3.02712C382.36 1.33367 383.786 1.0433e-06 385.487 8.94591e-07L395.72 0C397.421 -1.48711e-07 398.843 1.29324 399.004 2.98663L401.734 31.652C402.887 43.7578 394.466 54.3958 382.934 56.4565C381.19 56.7681 379.781 58.1981 379.781 59.9696V75.8465C379.781 77.7923 378.106 79.3155 376.169 79.131L325.952 74.3484Z" fill="#0066FF"/>
<path d="M379.473 103.625C378.32 91.5189 386.741 80.8812 398.273 78.8205C400.017 78.5089 401.426 77.0789 401.426 75.3074V58.7539C401.426 56.808 403.101 55.2848 405.038 55.4693L455.255 60.2519C456.949 60.4132 458.242 61.8354 458.242 63.5365V71.0639C458.242 72.7649 456.913 74.1901 455.22 74.3531C405.87 79.1037 403.933 81.0664 399.009 132.253C398.846 133.946 397.421 135.277 395.72 135.277H385.487C383.786 135.277 382.364 133.983 382.202 132.29L379.473 103.625Z" fill="#0066FF"/>
<path d="M357.778 88.5813C359.001 87.027 361.307 86.8896 362.705 88.2879L370 95.5823C371.398 96.9806 371.261 99.2866 369.706 100.509L348.81 116.942C347.497 117.975 345.619 117.863 344.438 116.681L341.606 113.849C340.425 112.668 340.313 110.79 341.346 109.477L357.778 88.5813Z" fill="white"/>
<path d="M418.994 88.2765C420.392 86.8782 422.698 87.0156 423.921 88.5699L440.354 109.466C441.387 110.779 441.275 112.657 440.094 113.838L437.262 116.67C436.08 117.851 434.203 117.963 432.889 116.93L411.993 100.498C410.439 99.2752 410.302 96.9692 411.7 95.5709L418.994 88.2765Z" fill="white"/>
<path d="M344.427 18.1948C345.608 17.0135 347.486 16.9017 348.799 17.9344L369.695 34.3676C371.249 35.5901 371.386 37.8955 369.988 39.2937L362.693 46.5887C361.295 47.9865 358.99 47.8491 357.767 46.2953L341.334 25.399C340.301 24.0858 340.413 22.2076 341.595 21.0262L344.427 18.1948Z" fill="white"/>
<path d="M432.877 17.9223C434.191 16.8898 436.068 17.0016 437.25 18.1827L440.082 21.0147C441.263 22.1961 441.374 24.0738 440.342 25.387L423.909 46.2832C422.686 47.8376 420.38 47.9749 418.982 46.5767L411.688 39.2822C410.289 37.8839 410.427 35.578 411.981 34.3556L432.877 17.9223Z" fill="white"/>
</svg>
