<svg width="303" height="303" viewBox="0 0 303 303" fill="none" xmlns="http://www.w3.org/2000/svg">
<path d="M6.68723 166.471C2.89562 166.11 1.80642e-06 162.925 1.47345e-06 159.117L0 142.262C-3.32974e-07 138.454 2.98367 135.261 6.77544 134.901C121.77 123.998 121.496 124.186 132.629 6.77793C132.989 2.98618 136.182 2.33602e-06 139.991 2.00305e-06L162.903 0C166.712 -3.32973e-07 169.896 2.89564 170.257 6.68726L176.37 70.8709C178.951 97.9766 160.095 121.796 134.273 126.41C130.369 127.108 127.215 130.309 127.215 134.276V169.825C127.215 174.182 123.464 177.593 119.127 177.18L6.68723 166.471Z" fill="#0066FF"/>
<path d="M126.524 232.023C123.942 204.917 142.799 181.098 168.62 176.484C172.525 175.787 175.678 172.585 175.678 168.618V131.554C175.678 127.197 179.429 123.786 183.766 124.199L296.206 134.908C299.998 135.269 302.894 138.454 302.894 142.262V159.117C302.894 162.925 299.918 166.117 296.127 166.482C185.628 177.119 181.293 181.513 170.268 296.123C169.903 299.914 166.712 302.894 162.903 302.894H139.991C136.182 302.894 132.997 299.998 132.636 296.206L126.524 232.023Z" fill="#0066FF"/>
<path d="M77.9482 198.339C80.6853 194.859 85.8484 194.552 88.9793 197.682L105.313 214.015C108.444 217.146 108.136 222.309 104.656 225.046L57.8683 261.841C54.9277 264.153 50.7236 263.902 48.0786 261.257L41.7375 254.916C39.0928 252.271 38.8422 248.066 41.1544 245.126L77.9482 198.339Z" fill="white"/>
<path d="M215.015 197.657C218.146 194.526 223.309 194.834 226.046 198.314L262.841 245.101C265.153 248.041 264.903 252.246 262.258 254.892L255.917 261.231C253.272 263.876 249.068 264.127 246.127 261.814L199.339 225.021C195.859 222.284 195.552 217.12 198.682 213.99L215.015 197.657Z" fill="white"/>
<path d="M48.053 40.7392C50.6982 38.0943 54.9023 37.8438 57.8427 40.1562L104.631 76.9513C108.11 79.6885 108.418 84.8504 105.288 87.981L88.9537 104.315C85.8231 107.445 80.6611 107.137 77.924 103.658L41.1288 56.87C38.8164 53.9295 39.0667 49.7241 41.7119 47.0789L48.053 40.7392Z" fill="white"/>
<path d="M246.1 40.1291C249.041 37.8173 253.245 38.0676 255.89 40.7122L262.231 47.0533C264.876 49.6983 265.126 53.9027 262.814 56.843L226.019 103.631C223.282 107.111 218.119 107.419 214.988 104.288L198.655 87.9554C195.524 84.8246 195.832 79.6614 199.312 76.9243L246.1 40.1291Z" fill="white"/>
</svg>
