<svg width="303" height="303" viewBox="0 0 303 303" fill="none" xmlns="http://www.w3.org/2000/svg">
<path d="M6.68734 166.471C2.89573 166.11 0.000108618 162.925 0.000108285 159.117L0.000106812 142.262C0.000106479 138.454 2.98378 135.261 6.77555 134.901C121.77 123.998 121.496 124.186 132.629 6.77793C132.989 2.98618 136.182 2.33602e-06 139.991 2.00305e-06L162.903 0C166.712 -3.32973e-07 169.896 2.89564 170.257 6.68726L176.37 70.8709C178.951 97.9766 160.095 121.796 134.274 126.41C130.369 127.108 127.215 130.309 127.215 134.276V169.825C127.215 174.182 123.464 177.593 119.127 177.18L6.68734 166.471Z" fill="#0066FF"/>
<path d="M126.524 232.023C123.942 204.917 142.799 181.098 168.62 176.484C172.525 175.787 175.678 172.585 175.678 168.618V131.554C175.678 127.197 179.429 123.786 183.766 124.199L296.206 134.908C299.998 135.269 302.894 138.454 302.894 142.262V159.117C302.894 162.925 299.919 166.117 296.127 166.482C185.629 177.119 181.293 181.513 170.268 296.123C169.903 299.914 166.712 302.894 162.903 302.894H139.991C136.182 302.894 132.998 299.998 132.636 296.206L126.524 232.023Z" fill="#0066FF"/>
<path d="M77.9455 198.34C80.6827 194.859 85.8458 194.552 88.9767 197.683L105.311 214.015C108.441 217.146 108.134 222.309 104.654 225.046L57.8656 261.842C54.9251 264.154 50.721 263.902 48.076 261.257L41.7349 254.916C39.0902 252.271 38.8396 248.067 41.1518 245.126L77.9455 198.34Z" fill="#0B1121"/>
<path d="M215.012 197.657C218.143 194.526 223.306 194.834 226.043 198.314L262.839 245.101C265.151 248.041 264.9 252.247 262.255 254.892L255.914 261.232C253.269 263.877 249.065 264.127 246.125 261.815L199.337 225.021C195.856 222.284 195.549 217.121 198.68 213.99L215.012 197.657Z" fill="#0B1121"/>
<path d="M48.0504 40.7394C50.6956 38.0945 54.8996 37.844 57.8401 40.1563L104.628 76.9515C108.107 79.6886 108.415 84.8506 105.285 87.9812L88.9511 104.315C85.8205 107.445 80.6585 107.137 77.9214 103.658L41.1262 56.8702C38.8138 53.9297 39.0641 49.7243 41.7093 47.0791L48.0504 40.7394Z" fill="#0B1121"/>
<path d="M246.098 40.1293C249.038 37.8175 253.242 38.0678 255.887 40.7124L262.228 47.0535C264.873 49.6985 265.123 53.9029 262.811 56.8431L226.016 103.631C223.279 107.112 218.116 107.419 214.985 104.288L198.652 87.9556C195.522 84.8248 195.829 79.6616 199.31 76.9245L246.098 40.1293Z" fill="#0B1121"/>
</svg>
