<svg width="340" height="366" viewBox="0 0 340 366" fill="none" xmlns="http://www.w3.org/2000/svg">
<path d="M208.426 52.1068C208.426 54.723 206.305 56.8438 203.689 56.8438H61.5807C58.9645 56.8438 56.8437 58.9646 56.8437 61.5807V156.319C56.8437 158.935 58.9645 161.056 61.5807 161.056H142.109C144.725 161.056 146.846 163.177 146.846 165.793V198.952C146.846 201.568 144.725 203.689 142.109 203.689H61.5807C58.9645 203.689 56.8437 205.81 56.8437 208.426V361.192C56.8437 363.809 54.7229 365.929 52.1068 365.929H4.73695C2.12081 365.929 0 363.809 0 361.192V255.796C0 229.019 18.5156 206.57 43.4413 200.546C45.6902 200.002 47.3698 198.048 47.3698 195.734V169.011C47.3698 166.697 45.6902 164.743 43.4413 164.199C18.5156 158.175 0.000196545 135.727 0 108.951V4.73695C0 2.12081 2.1208 0 4.73694 0H203.689C206.305 0 208.426 2.1208 208.426 4.73695V52.1068Z" fill="#0066FF"/>
<path d="M141.354 274.344C138.82 274.103 136.885 271.975 136.885 269.43L136.885 258.166C136.885 255.621 138.879 253.487 141.413 253.247C218.26 245.961 218.077 246.086 225.517 167.626C225.757 165.092 227.891 163.097 230.436 163.097L245.748 163.097C248.293 163.097 250.421 165.032 250.662 167.566L254.747 210.458C256.472 228.571 243.871 244.489 226.616 247.573C224.006 248.039 221.899 250.179 221.899 252.829V276.586C221.899 279.497 219.392 281.777 216.494 281.5L141.354 274.344Z" fill="#0066FF"/>
<path d="M221.437 318.15C219.712 300.036 232.313 284.119 249.568 281.036C252.178 280.57 254.285 278.43 254.285 275.779V251.01C254.285 248.099 256.792 245.819 259.69 246.095L334.83 253.252C337.364 253.493 339.299 255.621 339.299 258.166V269.43C339.299 271.975 337.311 274.107 334.777 274.351C260.935 281.46 258.037 284.396 250.67 360.986C250.426 363.52 248.293 365.511 245.748 365.511H230.436C227.891 365.511 225.763 363.576 225.522 361.042L221.437 318.15Z" fill="#0066FF"/>
<path d="M188.973 295.641C190.802 293.315 194.253 293.109 196.345 295.202L207.261 306.116C209.353 308.209 209.147 311.659 206.822 313.488L175.555 338.077C173.589 339.622 170.78 339.454 169.012 337.687L164.775 333.449C163.007 331.681 162.84 328.872 164.385 326.907L188.973 295.641Z" fill="#0B1121"/>
<path d="M280.571 295.185C282.663 293.092 286.113 293.298 287.942 295.624L312.532 326.89C314.077 328.855 313.909 331.665 312.142 333.433L307.904 337.669C306.137 339.437 303.327 339.604 301.362 338.059L270.095 313.471C267.769 311.642 267.564 308.191 269.656 306.099L280.571 295.185Z" fill="#0B1121"/>
<path d="M168.995 190.321C170.763 188.554 173.572 188.386 175.537 189.932L206.805 214.521C209.13 216.35 209.335 219.799 207.244 221.892L196.328 232.807C194.236 234.899 190.786 234.693 188.957 232.368L164.368 201.101C162.823 199.136 162.99 196.326 164.758 194.558L168.995 190.321Z" fill="#0B1121"/>
<path d="M301.344 189.914C303.309 188.369 306.119 188.536 307.886 190.303L312.124 194.541C313.891 196.308 314.058 199.118 312.513 201.083L287.924 232.35C286.095 234.676 282.645 234.881 280.553 232.789L269.638 221.874C267.546 219.782 267.751 216.332 270.077 214.503L301.344 189.914Z" fill="#0B1121"/>
</svg>
