<svg width="402" height="278" viewBox="0 0 402 278" fill="none" xmlns="http://www.w3.org/2000/svg">
<path d="M154.689 29.4647C154.689 31.4988 153.04 33.1477 151.006 33.1477H103.126C101.092 33.1477 99.4432 34.7967 99.4432 36.8308V240.321C99.4432 242.355 101.092 244.004 103.126 244.004H151.006C153.04 244.004 154.689 245.653 154.689 247.687V273.469C154.689 275.503 153.04 277.152 151.006 277.152H3.68309C1.64898 277.152 0 275.503 0 273.469V247.687C0 245.653 1.64897 244.004 3.68308 244.004H51.5631C53.5973 244.004 55.2462 242.355 55.2462 240.321V36.8308C55.2462 34.7967 53.5973 33.1477 51.5631 33.1477H3.68308C1.64897 33.1477 0 31.4988 0 29.4647V3.68308C0 1.64897 1.64897 0 3.68308 0H151.006C153.04 0 154.689 1.64897 154.689 3.68308V29.4647Z" fill="#0066FF"/>
<path fill-rule="evenodd" clip-rule="evenodd" d="M324.296 0.00987435C324.296 0.0153409 324.301 0.0197671 324.306 0.0197486L326.82 0.0112399C328.263 0.00620778 329.527 0.977236 329.895 2.37296L401.181 273.218C401.71 275.226 400.195 277.192 398.118 277.192H360.626C359.186 277.192 357.927 276.221 357.562 274.829L337.406 198.071C336.981 196.452 335.518 195.323 333.844 195.323H237.289C235.623 195.323 234.164 196.442 233.732 198.052L213.241 274.463C212.81 276.072 211.351 277.192 209.684 277.192L173.263 277.195C170.841 277.195 169.078 274.898 169.705 272.558L181.57 228.313C187.426 206.477 205.404 190.43 227.092 186.627C228.469 186.385 229.632 185.44 230.082 184.116L235.336 168.644C236.048 166.547 234.75 164.314 232.653 163.602C216.368 158.07 206.063 140.612 210.69 122.797L241.863 2.75731C242.285 1.13361 243.751 0 245.428 0H324.287C324.292 0 324.296 0.0044209 324.296 0.00987435ZM278.79 41.1424C277.112 41.1424 275.647 42.276 275.225 43.8997L246.27 155.393C245.664 157.726 247.425 160.002 249.835 160.002H322.635C325.049 160.002 326.81 157.718 326.197 155.383L296.921 43.8901C296.495 42.2711 295.032 41.1424 293.358 41.1424H278.79Z" fill="#0066FF"/>
</svg>
